<svg
  viewBox="0 0 100 100"
  fill="none"
  xmlns="http://www.w3.org/2000/svg"
>
  <path
    fill-rule="evenodd"
    clip-rule="evenodd"
    d="M32 15C24.268 15 18 21.268 18 29V71C18 78.732 24.268 85 32 85C39.732 85 46 78.732 46 71V29C46 21.268 39.732 15 32 15ZM32 37C36.4183 37 40 33.4183 40 29C40 24.5817 36.4183 21 32 21C27.5817 21 24 24.5817 24 29C24 33.4183 27.5817 37 32 37Z"
    fill="#1a1815"
  />
  <circle cx="68" cy="30" r="12" fill="#1a1815" />
  <circle cx="68" cy="62" r="12" fill="#1a1815" />
</svg>
